<?xml version="1.0" encoding="utf-8"?>
<!-- Generator: Adobe Illustrator 26.0.1, SVG Export Plug-In . SVG Version: 6.00 Build 0)  -->
<svg version="1.1" id="Layer_1" xmlns="http://www.w3.org/2000/svg" xmlns:xlink="http://www.w3.org/1999/xlink" x="0px" y="0px"
	 viewBox="0 0 512 512" style="enable-background:new 0 0 512 512;" xml:space="preserve">
<g>
	<g>
		<path d="M265.74,455.24c-45.16,0-90.33,0-135.49,0c-8.82,0-10.53-1.7-10.53-10.47c-0.01-13.33-0.13-26.67,0.07-40
			c0.07-4.75-1.66-6.62-6.43-6.49c-8.16,0.22-16.33,0.08-24.5,0.06c-7.19-0.02-9.04-1.77-9.04-8.75
			c-0.02-51.66-0.02-103.32,0-154.99c0-6.32,1.88-8.37,8.35-8.53c8.16-0.21,16.33-0.06,24.5-0.08c6.8-0.02,7.05-0.25,7.05-7.02
			c0-53,0-105.99,0-158.99c0-9.74,1.57-11.31,11.29-11.31c70.16,0,140.32,0.05,210.48-0.11c5.09-0.01,8.99,1.41,12.47,4.9
			c18,18.04,36.04,36.04,54.06,54.06c2.89,2.89,3.64,6.27,3.56,10.42c-0.32,17.16-0.21,34.33-0.23,51.49
			c-0.02,16.17-0.02,32.33,0,48.5c0.01,7.56,0.52,8.05,7.84,8.06c7.67,0,15.33-0.09,23,0.04c7.52,0.13,9.16,1.84,9.16,9.11
			c0.01,51.5,0.01,102.99,0,154.49c0,7.25-1.47,8.68-8.86,8.71c-7.83,0.03-15.67-0.01-23.5,0.01c-6.67,0.02-7.7,0.92-7.63,7.4
			c0.15,13.99-0.45,27.98,0.33,41.97c0.23,4.11-2.06,6.58-5.98,7.38c-1.61,0.33-3.32,0.15-4.99,0.15
			C355.73,455.24,310.73,455.24,265.74,455.24z M265.37,386.69c55.98,0,111.97,0,167.95,0c6.99,0,7.34-0.34,7.34-7.37
			c0.01-44.65,0.01-89.31,0-133.96c0-7.54-0.57-8.11-7.83-8.11c-111.47,0-222.93,0-334.4,0c-7.19,0-7.21,0.02-7.21,7.27
			c0,44.99,0,89.97,0,134.96c0,7.21,0.01,7.22,7.2,7.22C154.07,386.69,209.72,386.69,265.37,386.69z M266.02,225.98
			c42.49,0,84.98,0,127.47,0.01c3.26,0,6.37,0.37,6.35-4.59c-0.1-32.49-0.07-64.98-0.02-97.48c0.01-3.44-1.48-4.73-4.85-4.68
			c-6.83,0.12-13.66-0.02-20.49,0c-16.52,0.04-29.62-14.19-32.23-26.45c-1.82-8.52-1.25-16.88-1.53-25.31
			c-0.23-7.18-0.05-7.2-7.26-7.2c-64.82,0-129.64,0-194.45,0c-7.53,0-7.65,0.1-7.65,7.43c-0.01,50.32-0.01,100.64,0,150.96
			c0,7.21,0.08,7.3,7.2,7.3C181.04,225.99,223.53,225.98,266.02,225.98z M266.02,443.65c42.49,0,84.98-0.06,127.47,0.08
			c4.71,0.02,6.52-1.31,6.4-6.21c-0.29-11.16-0.24-22.33-0.01-33.49c0.09-4.42-1.56-5.76-5.85-5.75
			c-85.48,0.09-170.97,0.09-256.45-0.01c-4.88-0.01-6.4,1.87-6.3,6.53c0.23,10.49,0.07,20.99,0.07,31.49
			c0.01,7.26,0.08,7.35,7.19,7.35C181.03,443.65,223.52,443.65,266.02,443.65z M378.42,107.78c2.75,0,4.91,0.04,7.07-0.02
			c1.28-0.03,2.94,0.46,3.62-0.97c0.84-1.77-0.93-2.67-1.9-3.65c-5.25-5.34-10.58-10.6-15.87-15.89
			c-4.94-4.94-9.84-9.93-14.86-14.79c-1.1-1.06-3.55-3.38-3.88-0.11c-0.73,7.23-1.16,14.81,2.18,21.54
			C359.64,103.72,367.65,108.86,378.42,107.78z"/>
		<path d="M265.93,351.49c-5.66-0.26-11.21-0.2-16.65-2.59c-8.38-3.67-11.93-10.7-14.32-18.72c-0.64-2.14,0.09-3.86,2.63-4.52
			c2.94-0.75,5.88-1.09,8.9-0.98c2.12,0.07,3.32,0.93,3.83,3.11c2.33,9.86,15.98,16.07,26.8,8.19c5.84-4.25,5.15-11.71-1.33-14.89
			c-6.92-3.4-14.76-3.78-21.91-6.53c-6.4-2.47-11.89-5.72-14.97-12.29c-4.73-10.09,0.27-22.78,10.74-26.83
			c10.87-4.21,21.82-4.32,32.44,0.35c6.58,2.9,10.43,8.58,12.03,15.63c0.26,1.14,0.12,2.35-0.66,3.33
			c-2.3,2.88-13.35,1.77-15.03-1.5c-4.05-7.91-15.31-10.91-22.78-6.06c-5.39,3.49-5.11,8.57,0.64,11.49
			c7.33,3.72,15.49,4.81,23.23,7.25c11.16,3.52,18.16,12.5,17.47,23.17c-0.71,10.87-8.91,19.84-20.12,21.67
			C273.28,351.34,269.58,351.26,265.93,351.49z"/>
		<path d="M194.14,272.67c10.94-0.51,20.34,3.73,26.78,13.75c4.05,6.31,3.04,8.53-4.17,10.07c-1.3,0.28-2.63,0.6-3.81,1.17
			c-2.3,1.11-3.38,0.58-4.55-1.85c-3.32-6.9-8.86-10.69-16.76-10.12c-8.67,0.62-13.83,5.47-16.51,13.6
			c-3.16,9.59-2.57,18.98,0.85,28.28c2.39,6.49,10.27,12.02,16.58,11.93c6.17-0.08,13.73-5.69,15.86-12.73
			c1.12-3.72,2.68-4.09,5.67-2.74c0.15,0.07,0.32,0.1,0.48,0.15c11.96,3.78,11.74,2.35,5.2,13.99c-4.72,8.4-12.66,12.82-22.72,13.15
			c-10.08,0.33-19.71-0.4-27.44-7.89c-11.37-11-13.44-24.75-11.12-39.52c0.84-5.33,1.81-10.76,5.04-15.5
			C170.71,277.84,180.42,272.29,194.14,272.67z"/>
		<path d="M312.13,273.71c4.38-0.89,7.19,0.75,8.9,6.35c4.49,14.76,9.84,29.26,14.85,43.86c0.57,1.67,0.59,4.2,2.9,4.02
			c1.98-0.15,1.52-2.6,2.03-4.11c4.63-13.85,9.27-27.7,13.9-41.55c0.37-1.1,0.84-2.2,0.95-3.34c0.39-4.01,2.82-5.19,6.49-5.29
			c11.44-0.3,11.48-0.22,7.59,10.72c-7.28,20.46-14.47,40.95-21.64,61.45c-1.12,3.21-3.12,5.02-6.59,5.03
			c-2.16,0.01-4.33-0.05-6.49,0.08c-4,0.23-6-1.87-7.27-5.44c-7.55-21.27-15.18-42.51-22.82-63.75
			C302.47,274.89,303.36,273.72,312.13,273.71z"/>
		<path d="M265.79,151.8c28.98,0,57.96,0,86.94,0c1.66,0,3.35-0.1,4.99,0.12c3.12,0.42,5.16,2.1,5.57,5.4
			c0.43,3.42-1.29,5.47-4.42,6.21c-2.07,0.49-4.27,0.61-6.42,0.61c-57.8,0.03-115.59,0.03-173.39,0c-2.15,0-4.34-0.11-6.43-0.56
			c-3.16-0.68-4.93-2.94-4.82-6.11c0.12-3.32,2.6-4.88,5.54-5.5c1.6-0.34,3.32-0.17,4.98-0.17
			C207.49,151.79,236.64,151.8,265.79,151.8z"/>
		<path d="M265.98,185.09c29.31-0.01,58.63-0.02,87.94,0.01c2.62,0,5.38-0.4,7.59,1.65c1.51,1.41,2.78,2.88,2.29,5.18
			c-0.5,2.35-1.84,3.65-4.18,4.42c-3.68,1.21-7.26-0.08-10.87-0.08c-48.63,0.1-97.27,0.02-145.9,0.11
			c-8.97,0.02-17.95-0.53-26.93,0.48c-4.74,0.53-7.96-1.9-8.18-5.39c-0.26-3.95,2.64-6.34,8.32-6.35
			C206.02,185.06,236,185.1,265.98,185.09z"/>
		<path d="M239,130.3c-20.33,0-40.67,0-61-0.01c-1.67,0-3.37,0.12-4.99-0.18c-2.78-0.51-4.98-1.76-5.32-5.05
			c-0.34-3.4,1.35-5.47,4.29-6.47c1.68-0.57,3.6-0.63,5.41-0.63c41.17-0.03,82.33-0.03,123.5-0.02c1.83,0,3.69-0.14,5.41,0.69
			c2.86,1.4,4.22,3.66,3.84,6.88c-0.36,3.04-2.56,4.16-5.15,4.61c-1.62,0.29-3.32,0.16-4.99,0.17
			C279.67,130.3,259.33,130.3,239,130.3z"/>
	</g>
</g>
</svg>
