<?xml version="1.0" encoding="utf-8"?>
<!-- Generator: Adobe Illustrator 26.0.1, SVG Export Plug-In . SVG Version: 6.00 Build 0)  -->
<svg version="1.1" id="Layer_1" xmlns="http://www.w3.org/2000/svg" xmlns:xlink="http://www.w3.org/1999/xlink" x="0px" y="0px"
	 viewBox="0 0 512 512" style="enable-background:new 0 0 512 512;" xml:space="preserve">
<g>
	<g>
		<path d="M64.63,245.38c0-49.66,0.05-99.31-0.09-148.97c-0.01-4.03,1.46-5.87,5.14-6.46c10.34-1.64,20.68-3.32,31.03-4.92
			c12.3-1.9,24.6-3.87,36.93-5.58c22.04-3.06,43.95-6.9,65.99-10.04c25.65-3.65,51.15-8.3,76.83-11.8c2.63-0.36,5.17-1.35,7.79-1.72
			c3.34-0.47,5.13,0.97,4.58,4.58c-1.06,6.96-0.36,13.97-0.46,20.95c-0.08,5.9,0.63,6.5,6.69,6.5c38.66,0.02,77.32,0.01,115.98,0.01
			c5.5,0,11-0.11,16.5,0.02c10.36,0.24,16.7,6.71,16.7,17.02c0.03,89.15,0.05,178.3,0.05,267.44c0,12.31-6.28,18.57-18.8,18.58
			c-42.99,0.04-85.98,0.01-128.97,0.01c-8.21,0-8.24-0.01-8.18,8.38c0.09,11.66,0.13,23.31,0.39,34.97
			c0.09,3.96-2.01,4.68-5.06,3.97c-6.65-1.56-13.43-2.3-20.15-3.4c-16.05-2.61-32.07-5.47-48.06-8.48
			c-14.36-2.71-28.81-4.96-43.19-7.6c-9.43-1.74-19-3.16-28.51-4.64c-19.86-3.11-39.57-7.11-59.4-10.36
			c-6.4-1.05-12.74-2.3-19.11-3.46c-3.45-0.63-4.72-1.9-4.71-5.52c0.11-49.82,0.07-99.65,0.07-149.47
			C64.61,245.38,64.62,245.38,64.63,245.38z M433.98,240.28c0-23.66,0-47.33,0-70.99c0-20.5-0.05-41,0-61.5
			c0.01-3.43-0.53-5.64-4.86-5.63c-44.16,0.11-88.33,0.1-132.49,0.02c-4.05-0.01-5.29,1.91-5.27,5.48c0.03,5.67,0.15,11.34-0.07,17
			c-0.15,3.96,1.5,5.29,5.33,5.2c8.16-0.18,16.33-0.04,24.5-0.09c3.95-0.03,5.64,1.48,5.38,5.75c-0.4,6.64-0.25,13.33-0.14,19.99
			c0.05,3.43-1.42,4.85-4.77,4.81c-6.33-0.08-12.67-0.09-19-0.03c-12.68,0.12-10.98-1.45-11.32,11.17c-0.13,4.68,1.24,6.61,6.2,6.4
			c7.98-0.34,16-0.1,23.99-0.03c2.94,0.02,5.2,0.75,5.07,4.55c-0.22,6.83-0.32,13.67-0.15,20.49c0.11,4.25-1.79,5.57-5.73,5.45
			c-5.66-0.17-11.33-0.17-17-0.06c-13.48,0.26-12.35-2.56-12.29,12.56c0.02,4.2,1.76,5.05,5.41,4.98c8-0.17,16,0.04,24-0.09
			c4.11-0.06,6.05,1.08,5.74,5.78c-0.45,6.63-0.33,13.34,0.07,19.98c0.23,3.75-1.31,4.81-4.52,4.8c-6.83,0-13.67-0.01-20.5-0.01
			c-9.66,0-9.66,0.01-9.56,9.34c0.01,1,0.09,2.01-0.01,3c-0.4,3.92,1.34,5.31,5.23,5.21c8.16-0.2,16.33-0.02,24.5-0.07
			c3.79-0.02,5.23,1.36,4.92,5.48c-0.49,6.29-0.58,12.68-0.08,18.97c0.37,4.64-1.46,6.05-5.56,6.02c-5.67-0.04-11.33-0.07-17,0
			c-13.85,0.17-11.52-1.79-11.88,11.97c-0.1,4.04,1.3,5.74,5.48,5.61c7.33-0.23,14.66-0.1,22-0.09c6.4,0.01,6.64,0.26,6.65,6.85
			c0.01,5.83-0.23,11.68,0.06,17.5c0.23,4.67-1.8,6.27-6.17,6.19c-7.33-0.13-14.67,0.2-21.99-0.11c-4.7-0.2-6.26,1.63-5.96,6.13
			c0.28,4.15,0.05,8.33,0.06,12.5c0.02,6.92,0.16,7.09,6.91,7.09c42.66,0.01,85.33,0.01,127.99,0c6.81,0,6.82-0.01,6.82-7.07
			C433.98,327.27,433.98,283.78,433.98,240.28z M214.49,312.66c0,0.04,0,0.07,0,0.11c1.5,0,3,0.02,4.5,0
			c3.41-0.04,3.95-1.39,2.42-4.42c-9.65-19.16-18.87-38.54-28.9-57.5c-3.76-7.12-3.73-12.8,0.07-19.93
			c10.09-18.92,19.3-38.3,28.95-57.45c1.57-3.11,0.83-4.42-2.53-4.29c-6.65,0.26-13.3,0.76-19.95,0.86
			c-3.41,0.05-5.43,1.12-6.76,4.49c-5.55,14.04-11.39,27.97-17.08,41.95c-0.45,1.1-0.73,2.29-2.11,2.5
			c-1.6,0.24-2.49-0.83-3.07-2.07c-0.63-1.35-1.03-2.8-1.54-4.2c-4.33-11.86-8.62-23.74-13.05-35.57c-0.84-2.24-1.71-5.06-5.06-4.58
			c-6.8,0.98-13.64,0.45-20.46,0.76c-4.9,0.22-5.45,1.2-3.38,5.85c8.93,20.03,17.85,40.08,26.82,60.1c0.96,2.13,1.15,4.07,0.03,6.18
			c-3.25,6.18-6.42,12.4-9.63,18.6c-6.65,12.84-13.26,25.71-20.01,38.5c-1.36,2.59-1.39,3.91,1.94,4.29
			c6.27,0.72,12.46,1.93,18.82,2.17c4.43,0.17,6.77-1.35,8.28-5.32c5.2-13.67,10.56-27.28,15.81-40.92c0.42-1.1,0.58-2.39,1.99-2.54
			c1.37-0.15,2.07,0.92,2.62,1.97c0.69,1.32,1.39,2.66,1.92,4.06c5.17,13.67,10.29,27.36,15.45,41.02c1.02,2.7,2.84,4.4,5.94,4.52
			C202.52,312.01,208.5,312.36,214.49,312.66z"/>
		<path d="M375.51,160.16c-8.15,0-16.31-0.05-24.46,0.02c-3.73,0.03-5.48-1.51-5.4-5.38c0.13-6.32,0.36-12.67-0.12-18.96
			c-0.38-4.95,1.8-6.08,6.06-6.05c13.14,0.1,26.29,0.03,39.44,0.03c3,0,5.99,0.08,8.98-0.03c3.89-0.14,5.3,1.69,5.2,5.48
			c-0.17,6.49-0.16,12.98-0.02,19.47c0.08,4.08-1.67,5.61-5.72,5.51c-7.98-0.19-15.97-0.06-23.96-0.06
			C375.51,160.19,375.51,160.18,375.51,160.16z"/>
		<path d="M375.55,208.18c-7.99,0-15.99-0.09-23.98,0.04c-4.1,0.07-6.14-1.24-5.96-5.76c0.27-6.65,0.16-13.32-0.02-19.98
			c-0.09-3.24,1.27-4.64,4.35-4.64c16.99,0.01,33.98,0.01,50.96,0.04c2.82,0,4.25,1.35,4.22,4.32c-0.07,6.83-0.09,13.66,0.04,20.48
			c0.08,4-1.49,5.71-5.63,5.6c-7.99-0.21-15.99-0.06-23.98-0.06C375.55,208.2,375.55,208.19,375.55,208.18z"/>
		<path d="M375.21,304.14c-7.99,0.01-15.98-0.08-23.97,0.04c-3.96,0.06-5.78-1.34-5.62-5.55c0.24-6.48,0.2-12.98,0.01-19.47
			c-0.11-3.77,1.16-5.49,5.12-5.46c16.48,0.11,32.95,0.08,49.43,0.02c3.35-0.01,4.94,1.42,4.93,4.75c0,6.82-0.05,13.65,0.08,20.47
			c0.08,3.93-1.81,5.27-5.52,5.22C391.52,304.05,383.36,304.13,375.21,304.14z"/>
		<path d="M375.5,352.2c-8.16,0-16.32-0.06-24.48,0.03c-3.97,0.04-5.67-1.4-5.45-5.65c0.34-6.48,0.2-12.98,0.08-19.48
			c-0.06-3.47,1.14-5.32,4.85-5.31c16.65,0.04,33.3,0.04,49.95-0.02c3.5-0.01,4.72,1.75,4.71,4.96c-0.03,6.83-0.12,13.66,0.03,20.48
			c0.08,3.78-1.78,4.98-5.21,4.95c-8.16-0.06-16.32-0.02-24.48-0.02C375.5,352.16,375.5,352.18,375.5,352.2z"/>
		<path d="M375.51,225.75c7.99,0,15.99,0.11,23.98-0.04c4.02-0.07,5.76,1.46,5.65,5.59c-0.18,6.49-0.1,12.99,0.04,19.48
			c0.08,3.68-1.12,5.49-5.17,5.46c-16.32-0.13-32.64-0.08-48.96-0.01c-3.67,0.01-5.54-1.25-5.42-5.26c0.2-6.66,0.18-13.32,0-19.98
			c-0.11-3.96,1.66-5.32,5.4-5.27C359.19,225.82,367.35,225.75,375.51,225.75z"/>
	</g>
</g>
</svg>
