<?xml version="1.0" encoding="utf-8"?>
<!-- Generator: Adobe Illustrator 26.0.1, SVG Export Plug-In . SVG Version: 6.00 Build 0)  -->
<svg version="1.1" id="Layer_1" xmlns="http://www.w3.org/2000/svg" xmlns:xlink="http://www.w3.org/1999/xlink" x="0px" y="0px"
	 viewBox="0 0 512 509" style="enable-background:new 0 0 512 509;" xml:space="preserve">
<g>
	<g>
		<path d="M296.67,45.77c41,0,81.99-0.04,122.99,0.04c6.75,0.01,13.54-0.33,20.07,2.4c10,4.18,16.99,11.3,22.01,20.73
			c3.14,5.9,4.46,12.16,4.46,18.73c0.03,83.16-0.14,166.31,0.16,249.47c0.06,16.37-8.48,26.9-20.65,35.54
			c-7.93,5.63-17.09,7.52-26.84,7.5c-79.82-0.11-159.65-0.22-239.47,0.06c-11.67,0.04-22.02-3.42-31.71-8.83
			c-3.97-2.22-7.1-6.42-9.72-10.94c-7.35-12.7-7.13-26.38-7.12-40.2c0.03-75.49,0.26-150.98-0.14-226.47
			c-0.12-22.29,9.92-37.13,29.14-46.84c2.36-1.19,4.88-1.04,7.35-1.04c36.99-0.08,73.99-0.11,110.98-0.15
			C284.34,45.77,290.51,45.77,296.67,45.77z M269.82,212.65c-0.04,0-0.08,0-0.12,0c0,18.81,0.04,37.61-0.05,56.42
			c-0.01,2.31,0.46,3.33,3,3.3c16.31-0.18,32.62-0.06,48.92-0.41c9.11-0.19,16.78-3.76,21.93-11.69c4.32-6.66,4.97-14.35,5.16-21.84
			c0.42-16.63,0.05-33.29,0.21-49.93c0.05-5.06-0.83-9.85-2.02-14.72c-2.63-10.67-15.84-20.37-22.9-20.6
			c-16.79-0.56-33.62-0.17-50.43-0.21c-2.65-0.01-3.79,0.79-3.76,3.78C269.89,175.37,269.82,194.01,269.82,212.65z M165.21,212.12
			c0,8.99,0,17.98,0,26.97c0,9.16,0.16,18.32-0.04,27.47c-0.09,4.1,1.34,5.72,5.49,5.54c5.32-0.23,10.67-0.29,15.98,0.04
			c4.81,0.3,6.56-1.52,6.31-6.31c-0.48-9.13-0.55-18.28-0.86-27.42c-0.16-4.64,1.96-6.74,6.61-6.57c3.66,0.14,7.35,0.3,10.98-0.05
			c7.72-0.73,15.73-0.57,22.49-5.28c8.54-5.96,11.41-14.84,11.85-24.66c0.31-6.98,0.09-13.98,0.07-20.98
			c-0.05-16.63-11.15-27.84-27.73-27.92c-14.99-0.07-29.97,0.11-44.95-0.15c-4.84-0.08-6.32,1.6-6.26,6.34
			C165.34,176.82,165.21,194.48,165.21,212.12z M401.85,152.12c0-0.03,0-0.07,0-0.1c-7.99,0-15.99,0.16-23.97-0.06
			c-4.26-0.12-5.95,1.31-5.86,5.74c0.23,11.31,0.54,22.61,0.82,33.91c0.6,24.59-1.8,49.19,0.06,73.81c0.55,7.22,0.31,7.46,7.75,7.48
			c4.83,0.01,9.67-0.19,14.48,0.05c4.41,0.22,5.84-1.67,5.74-5.91c-0.21-9.32-0.09-18.65-0.07-27.97c0.02-6.81,0.35-7.15,6.97-7.18
			c5.99-0.03,12-0.2,17.98,0.05c4.4,0.19,6.02-1.79,5.99-5.89c-0.05-5.99-0.07-11.99,0.07-17.98c0.09-3.68-1.55-5.01-5.12-4.94
			c-6.99,0.14-13.99-0.03-20.98,0.04c-3.3,0.03-4.97-1.27-4.89-4.71c0.09-4.33,0.11-8.66-0.01-12.99c-0.11-4.06,1.8-5.69,5.76-5.62
			c6.32,0.11,12.66-0.19,18.98,0.09c4.66,0.2,6.29-1.89,6.21-6.21c-0.09-5.16-0.21-10.33,0.06-15.48c0.24-4.48-1.35-6.34-5.99-6.19
			C417.84,152.31,409.84,152.12,401.85,152.12z"/>
		<path d="M48.73,280.26c0.01-47.99,0-95.98,0.01-143.97c0-8.43,0.01-8.43,8.66-8.44c9.5-0.01,19-0.03,28.49-0.02
			c7.77,0.01,8.14,0.27,8,8.25c-0.11,6.65-0.73,13.29-0.82,19.94c-0.16,11.65,0.15,23.29,0.75,34.94
			c0.63,12.13-0.08,24.29-0.75,36.43c-0.82,14.82,0.86,29.61,0.92,44.43c0.06,13.16-1.28,26.26-1.07,39.44
			c0.19,11.65,1.44,23.26,1.05,34.94c-0.46,14.14-1.4,28.27-0.97,42.43c0.25,8.31,1.55,16.59,0.82,24.93
			c-0.24,2.73,1.38,3.48,3.7,3.48c18.62,0.05,37.2,1.82,55.89,0.32c11.07-0.89,22.26-0.42,33.43,0.29
			c11.94,0.76,23.95,0.68,35.94-0.2c10.96-0.8,21.97-0.67,32.95,0.01c12.64,0.79,25.27,0.8,37.92-0.03
			c10.81-0.71,21.65-0.69,32.46-0.03c12.98,0.79,25.93,0.91,38.91-0.02c4.48-0.32,8.99-0.19,13.48-0.26
			c3.08-0.04,4.63,1.51,4.63,4.58c0,12.33-0.04,24.66-0.01,36.99c0.01,3.47-1.77,4.66-5.02,4.59c-4.83-0.1-9.66-0.01-14.5-0.01
			c-91.48-0.02-182.96,0.02-274.45-0.1c-12.5-0.02-23.65-4.68-31.76-14.07c-5.62-6.5-8.61-14.81-8.6-23.87
			c0.04-45.16-0.04-90.31-0.08-135.47C48.72,286.59,48.72,283.43,48.73,280.26z"/>
		<path d="M296.82,213c0-8.83,0.11-17.67-0.05-26.5c-0.08-4.59,1.61-6.86,6.42-6.64c4.16,0.19,8.33,0.09,12.5,0.04
			c3.43-0.05,5.36,1.31,5.35,4.97c-0.06,18-0.06,36-0.15,53.99c-0.02,4.17-1.97,6.5-6.5,6.31c-4.16-0.18-8.33-0.12-12.5-0.02
			c-3.62,0.08-5.09-1.58-5.05-5.15c0.09-9,0.03-18,0.03-27C296.86,213,296.84,213,296.82,213z"/>
		<path d="M192.92,191.6c0.08-12.76-1.37-11.77,11.78-11.74c14.14,0.04,12.4-1.43,12.48,12.5c0.06,11.65,0.01,11.73-11.78,11.63
			C191.36,203.88,193.05,205.94,192.92,191.6z"/>
	</g>
</g>
</svg>
