<?xml version="1.0" standalone="no"?>
<!DOCTYPE svg PUBLIC "-//W3C//DTD SVG 20010904//EN"
 "http://www.w3.org/TR/2001/REC-SVG-20010904/DTD/svg10.dtd">
<svg version="1.0" xmlns="http://www.w3.org/2000/svg"
 width="512.000000pt" height="512.000000pt" viewBox="0 0 512.000000 512.000000"
 preserveAspectRatio="xMidYMid meet">
<metadata>
Created by potrace 1.14, written by Peter Selinger 2001-2017
</metadata>
<g transform="translate(0.000000,512.000000) scale(0.100000,-0.100000)"
fill="#000000" stroke="none">
<path d="M872 4740 c-19 -4 -47 -21 -64 -36 -64 -61 -209 -337 -283 -538 -161
-436 -193 -949 -89 -1415 60 -269 178 -553 320 -774 51 -78 91 -107 152 -107
93 0 152 55 160 146 4 50 1 59 -52 148 -158 265 -255 533 -302 841 -23 150
-23 441 0 599 45 311 160 627 315 866 31 48 36 63 36 117 0 74 -20 107 -85
141 -47 23 -56 24 -108 12z"/>
<path d="M4200 4728 c-66 -34 -93 -79 -87 -148 3 -45 14 -72 61 -150 335 -559
403 -1233 186 -1855 -41 -117 -116 -274 -192 -403 -57 -97 -60 -105 -56 -156
5 -63 33 -107 82 -130 47 -22 114 -20 154 4 42 26 114 138 196 305 378 766
344 1660 -93 2397 -59 99 -96 137 -147 149 -54 12 -54 12 -104 -13z"/>
<path d="M2415 4624 c-225 -46 -430 -227 -511 -451 l-29 -78 -3 -652 c-3 -730
-4 -721 68 -868 88 -181 265 -324 460 -369 83 -20 237 -20 320 0 195 45 372
188 460 369 72 147 71 138 68 863 l-3 647 -30 85 c-115 330 -458 524 -800 454z"/>
<path d="M1326 4100 c-86 -26 -211 -240 -270 -459 -55 -203 -55 -414 -1 -626
40 -160 139 -357 213 -428 37 -35 94 -50 144 -36 115 30 152 156 78 263 -175
255 -203 610 -71 892 21 45 54 104 72 131 30 42 34 56 34 110 0 74 -20 107
-85 141 -47 23 -67 26 -114 12z"/>
<path d="M3787 4096 c-52 -19 -73 -40 -93 -92 -23 -60 -14 -100 40 -187 99
-159 139 -296 140 -482 1 -196 -36 -330 -138 -498 -57 -93 -65 -131 -41 -193
34 -89 146 -126 228 -75 42 26 101 114 161 241 158 334 152 729 -15 1061 -56
113 -114 196 -147 213 -44 23 -94 27 -135 12z"/>
<path d="M1729 2267 c-19 -12 -45 -42 -57 -67 -22 -42 -23 -53 -18 -160 5
-128 22 -194 72 -290 47 -90 102 -151 190 -209 107 -72 179 -92 347 -98 l137
-6 0 -423 0 -424 -198 0 c-185 0 -201 -1 -242 -22 -66 -34 -93 -79 -88 -149 5
-65 32 -109 82 -133 30 -14 99 -16 606 -16 507 0 576 2 606 16 50 24 77 68 82
133 5 70 -22 115 -88 148 -41 22 -57 23 -242 23 l-198 0 0 425 0 425 108 0
c204 1 343 52 462 171 121 121 173 253 174 444 1 135 -11 170 -74 212 -63 43
-167 23 -212 -40 -19 -26 -23 -50 -29 -147 -9 -164 -47 -236 -153 -293 -40
-22 -50 -22 -436 -22 -386 0 -396 0 -436 22 -106 57 -144 129 -153 293 -6 97
-10 121 -29 147 -45 63 -149 83 -213 40z"/>
</g>
</svg>
